<svg xmlns="http://www.w3.org/2000/svg" width="439.999" height="292.022" viewBox="0 0 439.999 292.022">
  <g id="Group_5800" data-name="Group 5800" transform="translate(-0.001 -15.412)">
    <path id="Path_3533" data-name="Path 3533" d="M-15067.259,7884.165c105.094,14.1,72.62,102.607,225.526,64.079s288.4-54.1,59.758-163.194S-15172.351,7870.068-15067.259,7884.165Z" transform="translate(15100.028 -7650.445)" fill="#f2f2f2"/>
    <g id="undraw_transfer_files_re_a2a9" transform="translate(132.389 15.412)">
      <path id="Path_3620" data-name="Path 3620" d="M881.765,328.649,778.626,366.055,733.964,242.905,837.1,205.5Z" transform="translate(-599.139 -198.5)" fill="#f1f1f1"/>
      <path id="Path_3621" data-name="Path 3621" d="M881.765,328.649,778.626,366.055,733.964,242.905,837.1,205.5Z" transform="translate(-614.139 -205.5)" fill="#c7ceeb"/>
      <rect id="Rectangle_2007" data-name="Rectangle 2007" width="62.727" height="2.966" transform="matrix(0.94, -0.341, 0.341, 0.94, 179.414, 88.136)" fill="#fff"/>
      <rect id="Rectangle_2008" data-name="Rectangle 2008" width="62.727" height="2.966" transform="matrix(0.94, -0.341, 0.341, 0.94, 182.043, 95.385)" fill="#fff"/>
      <rect id="Rectangle_2009" data-name="Rectangle 2009" width="62.727" height="2.966" transform="matrix(0.94, -0.341, 0.341, 0.94, 184.671, 102.634)" fill="#fff"/>
      <ellipse id="Ellipse_243" data-name="Ellipse 243" cx="1.935" cy="1.935" rx="1.935" ry="1.935" transform="translate(173.341 89.742)" fill="#fff"/>
      <rect id="Rectangle_2010" data-name="Rectangle 2010" width="62.727" height="2.966" transform="matrix(0.94, -0.341, 0.341, 0.94, 168.086, 56.901)" fill="#fff"/>
      <rect id="Rectangle_2011" data-name="Rectangle 2011" width="62.727" height="2.966" transform="matrix(0.94, -0.341, 0.341, 0.94, 170.715, 64.15)" fill="#fff"/>
      <rect id="Rectangle_2012" data-name="Rectangle 2012" width="62.727" height="2.966" transform="matrix(0.94, -0.341, 0.341, 0.94, 173.343, 71.399)" fill="#fff"/>
      <ellipse id="Ellipse_244" data-name="Ellipse 244" cx="1.935" cy="1.935" rx="1.935" ry="1.935" transform="translate(161.903 58.204)" fill="#fff"/>
      <rect id="Rectangle_2013" data-name="Rectangle 2013" width="62.727" height="2.966" transform="matrix(0.94, -0.341, 0.341, 0.94, 190.852, 119.675)" fill="#fff"/>
      <rect id="Rectangle_2014" data-name="Rectangle 2014" width="62.727" height="2.966" transform="matrix(0.94, -0.341, 0.341, 0.94, 193.48, 126.923)" fill="#fff"/>
      <rect id="Rectangle_2015" data-name="Rectangle 2015" width="62.727" height="2.966" transform="matrix(0.94, -0.341, 0.341, 0.94, 196.109, 134.172)" fill="#fff"/>
      <ellipse id="Ellipse_245" data-name="Ellipse 245" cx="1.935" cy="1.935" rx="1.935" ry="1.935" transform="translate(184.669 120.977)" fill="#fff"/>
      <path id="Path_3622" data-name="Path 3622" d="M900.78,375.9H791.069v-131H900.78Z" transform="translate(-613.421 -208.354)" fill="#fff"/>
      <path id="Path_3623" data-name="Path 3623" d="M900.78,375.9H791.069v-131H900.78ZM793,373.962H898.845V246.835H793Z" transform="translate(-613.421 -208.354)" fill="#6c63fb"/>
      <path id="Path_3625" data-name="Path 3625" d="M860.277,297.764H839.746a1.018,1.018,0,0,1-.983-1.048v-21.9a1.018,1.018,0,0,1,.983-1.048h20.531a1.018,1.018,0,0,1,.983,1.048v21.9A1.018,1.018,0,0,1,860.277,297.764Z" transform="translate(-644.677 -149.105)" fill="#6c63ff"/>
      <path id="Path_3729" data-name="Path 3729" d="M860.277,297.764H839.746a1.018,1.018,0,0,1-.983-1.048v-21.9a1.018,1.018,0,0,1,.983-1.048h20.531a1.018,1.018,0,0,1,.983,1.048v21.9A1.018,1.018,0,0,1,860.277,297.764Z" transform="translate(-617.384 -149.105)" fill="#9cc2de"/>
      <path id="Path_3730" data-name="Path 3730" d="M860.277,297.764H839.746a1.018,1.018,0,0,1-.983-1.048v-21.9a1.018,1.018,0,0,1,.983-1.048h20.531a1.018,1.018,0,0,1,.983,1.048v21.9A1.018,1.018,0,0,1,860.277,297.764Z" transform="translate(-590.091 -149.105)" fill="#c7ceeb"/>
      <rect id="Rectangle_2016" data-name="Rectangle 2016" width="76.745" height="2.966" transform="translate(194.131 67.651)" fill="#a5a5a5"/>
      <rect id="Rectangle_2017" data-name="Rectangle 2017" width="76.745" height="2.966" transform="translate(194.131 75.383)" fill="#dedede"/>
      <rect id="Rectangle_2018" data-name="Rectangle 2018" width="76.745" height="2.966" transform="translate(194.131 83.116)" fill="#dedede"/>
      <rect id="Rectangle_2019" data-name="Rectangle 2019" width="76.745" height="2.966" transform="translate(194.131 96.725)" fill="#dedede"/>
      <rect id="Rectangle_2020" data-name="Rectangle 2020" width="76.745" height="2.966" transform="translate(194.131 104.457)" fill="#dedede"/>
      <rect id="Rectangle_2021" data-name="Rectangle 2021" width="76.745" height="2.966" transform="translate(194.131 112.19)" fill="#dedede"/>
      <path id="Path_3626" data-name="Path 3626" d="M197.095,467.353h8.071l3.84-31.133H197.093Z" transform="translate(-165.687 -192.146)" fill="#ffb8b8"/>
      <path id="Path_3627" data-name="Path 3627" d="M456.979,679.722h15.9a10.13,10.13,0,0,1,10.13,10.129v.33H456.98Z" transform="translate(-427.631 -407.15)" fill="#2f2e41"/>
      <path id="Path_3628" data-name="Path 3628" d="M121.713,460.285l7.835,1.939,11.207-29.3-11.563-2.862Z" transform="translate(-146.835 -190.607)" fill="#ffb8b8"/>
      <path id="Path_3629" data-name="Path 3629" d="M381.684,671.794l15.43,3.818h0a10.13,10.13,0,0,1,7.4,12.267l-.079.32-25.264-6.252Z" transform="translate(-408.171 -405.168)" fill="#2f2e41"/>
      <path id="Path_3630" data-name="Path 3630" d="M413.469,507.094l-7.1,40.4s-2.73,4.914-1.638,7.1,1.638,2.184,0,3.276-3.822,0-3.276,2.73a27.866,27.866,0,0,1,.546,4.913l-15.287,52.412s-9.827,4.368-2.73,7.1,14.195,4.914,15.833,2.184,0-6.005,0-6.005l25.114-60.055s3.822-5.46,3.822-8.735,12.557-26.752,12.557-26.752.546,23.476,1.092,25.114-1.092,4.914-1.092,7.1-1.092,2.184,0,3.276,1.092,13.649,1.092,13.649-6.551,48.59-2.73,49.136,14.741-.546,14.741-2.73a2.724,2.724,0,0,0-1.638-2.73l7.1-41.493a8.687,8.687,0,0,1,.546-4.914c1.092-2.184,1.092-2.184,1.092-3.276s-.546-1.638,0-2.184a2.7,2.7,0,0,0,.546-1.638s-1.092-3.276-.546-3.822,12.557-41.493,8.735-46.406S413.469,507.094,413.469,507.094Z" transform="translate(-408.732 -363.977)" fill="#2f2e41"/>
      <ellipse id="Ellipse_246" data-name="Ellipse 246" cx="14.195" cy="14.195" rx="14.195" ry="14.195" transform="translate(14.959 27.545)" fill="#ffb8b8"/>
      <path id="Path_3631" data-name="Path 3631" d="M439.939,374.893a2.308,2.308,0,0,0,.513-2.518,9.452,9.452,0,0,1-.651-2.727c.1-2.533,3.593-3.549,3.792-6.069.123-1.55-1.08-3.264-.386-4.606a3.093,3.093,0,0,1,2.386-1.293,29.649,29.649,0,0,1,10.875.146l.523-1.374,2.657,1.753c.145-.853,1.325-.938,2.1-.529a8.317,8.317,0,0,0,2.281,1.252c1.342.217,2.4-1.235,2.331-2.633a6.881,6.881,0,0,0-1.817-3.768,29.884,29.884,0,0,0-8-6.929l.737-1.328-1.579.634-.173-1.589-1.538.865-.022-1.431c-1.647,1.891-4.515,1.826-7.032,2a20.243,20.243,0,0,0-11.566,4.3,15.378,15.378,0,0,0-5.629,11.054,13.824,13.824,0,0,0,3.474,9.88C435.45,372.229,438.771,370.863,439.939,374.893Z" transform="translate(-420.814 -322.874)" fill="#2f2e41"/>
      <path id="Path_3632" data-name="Path 3632" d="M502.1,545.607a6.759,6.759,0,0,1,.583-10.348L498.9,520.284l8.539-4.52,5.05,21.222a6.8,6.8,0,0,1-10.385,8.621Z" transform="translate(-438.114 -366.145)" fill="#ffb8b8"/>
      <path id="Path_3633" data-name="Path 3633" d="M457.682,496.324c-17.255,0-33.137-7.808-33.352-7.915l-.178-.089-1.448-34.75c-.42-1.228-8.688-25.459-10.088-33.16-1.419-7.8,19.144-14.651,21.641-15.452l.567-6.277,23.043-2.483,2.921,8.032,8.267,3.1a4.089,4.089,0,0,1,2.534,4.8l-4.595,18.684,9.038,61.817-.232.1a43.869,43.869,0,0,1-18.117,3.585Z" transform="translate(-416.518 -336.242)" fill="#6c63ff"/>
      <path id="Path_3634" data-name="Path 3634" d="M494.648,504.058l-8-32.92-8.667-39.725,4.4-19.8h3.761c.069,0,6.9.1,8.376,8.932,1.425,8.552,5.724,35.77,5.767,36.044l7.265,46.495Z" transform="translate(-432.884 -340.097)" fill="#6c63ff"/>
      <path id="Path_3636" data-name="Path 3636" d="M456.762,547.774l-73.5-47.858,58.868-90.405,73.5,47.858Z" transform="translate(-409.195 -339.571)" fill="#fff"/>
      <path id="Path_3637" data-name="Path 3637" d="M456.762,547.774l-73.5-47.858,58.868-90.405,73.5,47.858ZM385.47,499.45,456.3,545.569l57.128-87.734L442.6,411.717Z" transform="translate(-409.195 -339.571)" fill="#e5e5e5"/>
      <rect id="Rectangle_2022" data-name="Rectangle 2022" width="2.442" height="49.012" transform="translate(24.939 122.989) rotate(-56.93)" fill="#6c63ff"/>
      <rect id="Rectangle_2023" data-name="Rectangle 2023" width="2.442" height="49.012" transform="translate(21.474 128.311) rotate(-56.93)" fill="#6c63ff"/>
      <rect id="Rectangle_2024" data-name="Rectangle 2024" width="2.442" height="49.012" transform="translate(18.008 133.632) rotate(-56.93)" fill="#6c63ff"/>
      <ellipse id="Ellipse_247" data-name="Ellipse 247" cx="1.594" cy="1.594" rx="1.594" ry="1.594" transform="translate(20.296 118.379)" fill="#6c63ff"/>
      <rect id="Rectangle_2025" data-name="Rectangle 2025" width="2.442" height="49.012" transform="translate(39.87 100.059) rotate(-56.93)" fill="#e5e5e5"/>
      <rect id="Rectangle_2026" data-name="Rectangle 2026" width="2.442" height="49.012" transform="translate(36.405 105.381) rotate(-56.93)" fill="#e5e5e5"/>
      <rect id="Rectangle_2027" data-name="Rectangle 2027" width="2.442" height="49.012" transform="translate(32.94 110.702) rotate(-56.93)" fill="#e5e5e5"/>
      <ellipse id="Ellipse_248" data-name="Ellipse 248" cx="1.594" cy="1.594" rx="1.594" ry="1.594" transform="translate(35.372 95.227)" fill="#e5e5e5"/>
      <rect id="Rectangle_2028" data-name="Rectangle 2028" width="2.442" height="49.012" transform="translate(9.863 146.142) rotate(-56.93)" fill="#e5e5e5"/>
      <rect id="Rectangle_2029" data-name="Rectangle 2029" width="2.442" height="49.012" transform="translate(6.398 151.463) rotate(-56.93)" fill="#e5e5e5"/>
      <rect id="Rectangle_2030" data-name="Rectangle 2030" width="2.442" height="49.012" transform="translate(2.933 156.785) rotate(-56.93)" fill="#e5e5e5"/>
      <ellipse id="Ellipse_249" data-name="Ellipse 249" cx="1.594" cy="1.594" rx="1.594" ry="1.594" transform="translate(5.365 141.309)" fill="#e5e5e5"/>
      <path id="Path_3638" data-name="Path 3638" d="M445.848,521.178a6.759,6.759,0,0,0-8.252-6.271l-8.938-12.6-8.98,3.565,12.873,17.612a6.8,6.8,0,0,0,13.3-2.309Z" transform="translate(-418.302 -362.78)" fill="#ffb8b8"/>
      <path id="Path_3639" data-name="Path 3639" d="M422.326,500.409l-27.046-35.087,10.134-31.849c.743-8.007,5.753-10.243,5.966-10.335l.325-.139,8.818,23.516-6.475,17.266,15.892,26.728Z" transform="translate(-412.2 -342.944)" fill="#6c63ff"/>
      <g id="Group_5796" data-name="Group 5796" transform="translate(229.889 47.985)">
        <path id="Path_2715" data-name="Path 2715" d="M4.248-165.32a9.357,9.357,0,0,0,.084,1.1.193.193,0,0,1-.267.049,1.277,1.277,0,0,0-1.322-1.006c-.781,0-1.618.668-1.618,2.068s.809,2.152,1.653,2.152a1.521,1.521,0,0,0,1.435-1.09A.2.2,0,0,1,4.48-162a3.109,3.109,0,0,1-.267,1.1,5.229,5.229,0,0,1-1.428.26,3.215,3.215,0,0,1-1.892-.535A2.209,2.209,0,0,1,0-163.013a2.323,2.323,0,0,1,.851-1.864A3.08,3.08,0,0,1,2.8-165.5a8.6,8.6,0,0,1,1.449.183" transform="translate(0 168.722)" fill="#6c63fb"/>
        <path id="Path_2716" data-name="Path 2716" d="M112.161-165.32a9.4,9.4,0,0,0,.084,1.1.193.193,0,0,1-.267.049,1.277,1.277,0,0,0-1.322-1.006c-.781,0-1.618.668-1.618,2.068s.809,2.152,1.653,2.152a1.522,1.522,0,0,0,1.435-1.09.2.2,0,0,1,.267.049,3.135,3.135,0,0,1-.267,1.1,5.234,5.234,0,0,1-1.428.26,3.215,3.215,0,0,1-1.892-.535,2.209,2.209,0,0,1-.893-1.843,2.322,2.322,0,0,1,.851-1.864,3.079,3.079,0,0,1,1.948-.626,8.6,8.6,0,0,1,1.449.183" transform="translate(-103.152 168.722)" fill="#6c63fb"/>
        <path id="Path_2717" data-name="Path 2717" d="M216.215-159.936a1.169,1.169,0,0,0,.119.668c.092.119.218.176.732.176.64,0,.837-.021,1.252-.837a.187.187,0,0,1,.267.042,4.34,4.34,0,0,1-.3,1.14c-.373-.014-1.048-.021-1.625-.021h-.942c-.324,0-.675.007-1.111.021a.193.193,0,0,1-.021-.246l.267-.035c.316-.042.359-.1.359-.753V-162.4c0-.654-.042-.718-.359-.76l-.2-.028a.16.16,0,0,1,.014-.246q.548.021,1.055.021c.337,0,.689-.007,1.041-.021a.2.2,0,0,1,0,.246l-.183.028c-.316.049-.359.106-.359.76Z" transform="translate(-205.081 166.741)" fill="#6c63fb"/>
        <path id="Path_2718" data-name="Path 2718" d="M324-158.562a.983.983,0,0,1-.048.275,1.369,1.369,0,0,1-1.346.91.869.869,0,0,1-.909-.947c0-1.09,1.308-1.241,2.3-1.213Zm.445-1.393c0-.815-.246-1.8-1.563-1.8a2.458,2.458,0,0,0-1.326.389l.142.332a1.936,1.936,0,0,1,1.137-.341c1.08-.01,1.165.891,1.165,1.345v.114c-1.848-.019-2.776.616-2.776,1.668A1.241,1.241,0,0,0,322.555-157a1.706,1.706,0,0,0,1.45-.758h.028l.066.654h.407a8.157,8.157,0,0,1-.066-1.08Z" transform="translate(-307.046 165.139)" fill="#6c63fb"/>
        <path id="Path_2719" data-name="Path 2719" d="M410.7-161.365a2.207,2.207,0,0,1,1.08.265l.161-.369a2.356,2.356,0,0,0-1.194-.284,2.289,2.289,0,0,0-2.35,2.426A2.149,2.149,0,0,0,410.587-157a2.919,2.919,0,0,0,1.327-.3l-.123-.351a2.683,2.683,0,0,1-1.137.256,1.793,1.793,0,0,1-1.8-1.961,1.833,1.833,0,0,1,1.848-2.009" transform="translate(-390.378 165.138)" fill="#6c63fb"/>
        <path id="Path_2720" data-name="Path 2720" d="M495.781-158.562a.983.983,0,0,1-.048.275,1.369,1.369,0,0,1-1.345.91.869.869,0,0,1-.909-.947c0-1.09,1.307-1.241,2.3-1.213Zm.445-1.393c0-.815-.246-1.8-1.563-1.8a2.459,2.459,0,0,0-1.327.389l.142.332a1.935,1.935,0,0,1,1.137-.341c1.08-.01,1.165.891,1.165,1.345v.114c-1.848-.019-2.776.616-2.776,1.668A1.241,1.241,0,0,0,494.341-157a1.705,1.705,0,0,0,1.449-.758h.029l.066.654h.408a8.131,8.131,0,0,1-.066-1.08Z" transform="translate(-471.252 165.139)" fill="#6c63fb"/>
        <path id="Path_2721" data-name="Path 2721" d="M583.738-203.89a1.6,1.6,0,0,1-.047.379,1.507,1.507,0,0,1-1.459,1.184c-1.08,0-1.592-.938-1.592-1.961,0-1.184.625-2.047,1.62-2.047a1.473,1.473,0,0,1,1.431,1.118,2.082,2.082,0,0,1,.047.417Zm.445-4.889h-.445v2.871h-.019a1.629,1.629,0,0,0-1.487-.8,2.193,2.193,0,0,0-2.047,2.464,2.071,2.071,0,0,0,1.961,2.293,1.724,1.724,0,0,0,1.62-.966h.019l.028.862h.407c-.019-.322-.038-.72-.038-1.061Z" transform="translate(-554.585 210.088)" fill="#6c63fb"/>
        <path id="Path_2722" data-name="Path 2722" d="M686.736-159.784a1.617,1.617,0,0,1,1.516-1.6,1.4,1.4,0,0,1,1.355,1.6Zm1.573-1.971c-1.175,0-2.047.947-2.047,2.464A2.092,2.092,0,0,0,688.385-157a3,3,0,0,0,1.431-.294l-.114-.36a2.642,2.642,0,0,1-1.26.256c-.938,0-1.734-.569-1.734-2.028h3.354a1.116,1.116,0,0,0,.019-.275,1.853,1.853,0,0,0-1.772-2.056" transform="translate(-655.982 165.139)" fill="#6c63fb"/>
        <path id="Path_2723" data-name="Path 2723" d="M792.228-161.756a1.554,1.554,0,0,0-1.089.379,1.81,1.81,0,0,0-.464.616h-.019a1.371,1.371,0,0,0-1.308-1,1.573,1.573,0,0,0-1.469.91h-.019l-.038-.805h-.417c.019.36.038.673.038,1.09v3.458h.445v-2.8a1.277,1.277,0,0,1,.076-.436,1.4,1.4,0,0,1,1.26-1.023c.73,0,1.128.6,1.128,1.421v2.842h.445v-2.918a1.334,1.334,0,0,1,.085-.445,1.309,1.309,0,0,1,1.194-.9c.786,0,1.184.607,1.184,1.63v2.634h.445v-2.681c0-1.724-1.033-1.971-1.478-1.971" transform="translate(-752.662 165.14)" fill="#6c63fb"/>
        <path id="Path_2724" data-name="Path 2724" d="M797.6-231.074,800-237.247l-1.571.692.427-1.1,1.8-.792.792,1.8-.428,1.1-.668-1.518-2.535,6.535a3.541,3.541,0,0,1-3.066,2.3h-5.627v-.356h5.627a3.115,3.115,0,0,0,2.633-1.952l-1.769-4.422h.483l1.194,2.975C797.4-231.685,797.517-231.354,797.6-231.074Z" transform="translate(-754.303 238.447)" fill="#6c63fb"/>
      </g>
    </g>
  </g>
</svg>
