<svg id="Capa_1" enable-background="new 0 0 512 512" height="512" viewBox="0 0 512 512" width="512" xmlns="http://www.w3.org/2000/svg"><g><path d="m366.005 172.075c80.58.613 146.109 66.768 145.994 147.35-.08 56.264-31.745 105.118-78.21 129.803-1.901 1.01-3.084 2.991-3.084 5.143v35.534c0 4.979-5.83 7.675-9.624 4.451l-32.798-27.878c-1.264-1.074-2.922-1.545-4.567-1.334-6.174.792-12.467 1.206-18.857 1.206-81.263 0-147.14-65.876-147.14-147.139.002-81.645 66.498-147.758 148.286-147.136z" fill="#d9b1ee"/><path d="m511.998 319.427c-.082 56.264-31.745 105.118-78.207 129.803-1.907 1.01-3.082 2.989-3.082 5.143v35.537c0 4.978-5.834 7.668-9.626 4.442l-15.831-13.45c.01-.041.01-.083.01-.124v-35.538c0-2.154 1.185-4.133 3.082-5.143 46.463-24.685 78.135-73.538 78.218-129.803.082-58.913-34.919-110.117-85.247-133.626 63.571 16.337 110.776 74.343 110.683 142.759z" fill="#cb97e7"/><path d="m145.995 16.246c-80.58.613-146.11 66.768-145.995 147.35.08 56.264 31.745 105.118 78.21 129.803 1.901 1.01 3.084 2.991 3.084 5.143v35.534c0 4.979 5.83 7.675 9.624 4.451l32.798-27.878c1.264-1.074 2.922-1.545 4.567-1.334 6.174.792 12.467 1.206 18.857 1.206 81.263 0 147.14-65.876 147.14-147.139-.001-81.645-66.497-147.758-148.285-147.136z" fill="#99e6fc"/><path d="m294.279 163.384c0 81.258-65.88 147.138-147.139 147.138-6.39 0-12.688-.412-18.861-1.206-1.639-.216-3.298.258-4.566 1.33l-32.796 27.88c-3.793 3.226-9.626.526-9.626-4.453v-17.625l27.292-23.2c1.268-1.072 2.927-1.536 4.566-1.33 6.174.794 12.471 1.206 18.861 1.206 81.258 0 147.139-65.88 147.139-147.139 0-32.775-10.719-63.056-28.848-87.514 27.147 26.695 43.978 63.83 43.978 104.913z" fill="#62dbfb"/><g><g><g><path d="m448.95 268.417h-150.62c-4.27 0-7.73-3.46-7.73-7.73s3.46-7.73 7.73-7.73h150.62c4.27 0 7.73 3.46 7.73 7.73s-3.461 7.73-7.73 7.73z" fill="#bd80e1"/></g></g><g><g><path d="m448.95 306.93h-26.814c-4.27 0-7.73-3.46-7.73-7.73s3.46-7.73 7.73-7.73h26.814c4.27 0 7.73 3.46 7.73 7.73s-3.461 7.73-7.73 7.73z" fill="#bd80e1"/></g><g><path d="m386.181 306.93h-105.41c-4.27 0-7.73-3.46-7.73-7.73s3.46-7.73 7.73-7.73h105.409c4.27 0 7.73 3.46 7.73 7.73s-3.46 7.73-7.729 7.73z" fill="#bd80e1"/></g></g><g><g><path d="m448.95 345.441h-168.179c-4.27 0-7.73-3.46-7.73-7.73s3.46-7.73 7.73-7.73h168.179c4.27 0 7.73 3.46 7.73 7.73 0 4.269-3.461 7.73-7.73 7.73z" fill="#bd80e1"/></g></g><g><g><path d="m448.95 383.953h-84.089c-4.27 0-7.73-3.46-7.73-7.73s3.46-7.73 7.73-7.73h84.089c4.27 0 7.73 3.46 7.73 7.73s-3.461 7.73-7.73 7.73z" fill="#bd80e1"/></g><g><path d="m328.951 383.953h-48.18c-4.27 0-7.73-3.46-7.73-7.73s3.46-7.73 7.73-7.73h48.18c4.27 0 7.73 3.46 7.73 7.73s-3.46 7.73-7.73 7.73z" fill="#bd80e1"/></g></g></g><g><g><circle cx="147.14" cy="232.657" fill="#01d0fb" r="12.785"/></g><g><g><path d="m147.139 200.983c-4.27 0-7.73-3.46-7.73-7.73v-14.911c0-13.472 8.092-25.778 20.617-31.349 12.206-5.43 19.764-18.053 18.807-31.409-1.09-15.196-13.32-27.777-28.449-29.263-17.118-1.669-32.354 10.255-34.717 27.176-.202 1.459-.306 2.955-.306 4.442 0 4.27-3.46 7.73-7.73 7.73s-7.73-3.46-7.73-7.73c0-2.197.153-4.41.454-6.576 3.513-25.167 26.17-42.927 51.541-40.428 22.527 2.213 40.736 20.933 42.357 43.544 1.421 19.829-9.808 38.573-27.943 46.64-6.95 3.092-11.441 9.852-11.441 17.223v14.911c0 4.27-3.46 7.73-7.73 7.73z" fill="#01d0fb"/></g></g></g></g></svg>